<svg xmlns="http://www.w3.org/2000/svg" viewBox="0 0 552.27 552.26"><defs><style>.cls-1{fill:#f4dcd3;}.cls-2{fill:#fff;fill-rule:evenodd;}</style></defs><title>facebookFichier 10</title><g id="Calque_2" data-name="Calque 2"><g id="Calque_3" data-name="Calque 3"><path class="cls-1" d="M273.65,552.25C121.39,550.88-1.36,425.9,0,273.64S126.37-1.36,278.62,0s275,126.36,273.64,278.61S425.9,553.63,273.65,552.25Z"/><path class="cls-2" d="M232.82,277l-1.44,160a4.17,4.17,0,0,0,4.13,4.2l59.43.54a4.17,4.17,0,0,0,4.2-4.13l1.47-162.64,43.09.39a4.17,4.17,0,0,0,4.18-3.78l4.59-49a4.17,4.17,0,0,0-4.11-4.56l-47.23-.42.31-34.77a14.76,14.76,0,0,1,14.89-14.62l33.2.3a4.17,4.17,0,0,0,4.21-4.13l.44-49a4.17,4.17,0,0,0-4.13-4.2l-56.11-.51a59.62,59.62,0,0,0-60.15,59.08l-.43,47.25-29.71-.27a4.17,4.17,0,0,0-4.21,4.13L199,270a4.17,4.17,0,0,0,4.13,4.21l29.71.27Z"/></g></g></svg>