<svg xmlns="http://www.w3.org/2000/svg" viewBox="0 0 548.66 548.66"><defs><style>.cls-1{fill:#749791;}.cls-2{fill:#fff;}</style></defs><title>instaFichier 12</title><g id="Calque_2" data-name="Calque 2"><g id="Calque_3" data-name="Calque 3"><path class="cls-1" d="M274.33,548.66C123.07,548.66,0,425.59,0,274.33S123.07,0,274.33,0,548.66,123.07,548.66,274.33,425.59,548.66,274.33,548.66ZM366.83,163a20.3,20.3,0,1,0,20.3,20.3A20.3,20.3,0,0,0,366.83,163Zm-90.24,26a85.27,85.27,0,1,0,85.27,85.27A85.37,85.37,0,0,0,276.59,189.06Zm0,139.9a54.63,54.63,0,1,1,54.62-54.63A54.7,54.7,0,0,1,276.59,329Zm172.06-125.5a104,104,0,0,0-104-104H207.36a104,104,0,0,0-104,104V340.75a104,104,0,0,0,104,104H344.63a104,104,0,0,0,104-104ZM416.07,340.75a71.43,71.43,0,0,1-71.44,71.43H207.36a71.44,71.44,0,0,1-71.44-71.43V203.46A71.44,71.44,0,0,1,207.36,132H344.63a71.43,71.43,0,0,1,71.44,71.43Z"/><path class="cls-2" d="M366.83,203.63a20.3,20.3,0,1,0-20.3-20.3A20.3,20.3,0,0,0,366.83,203.63Z"/><path class="cls-2" d="M276.59,189.06a85.27,85.27,0,1,0,85.27,85.27A85.37,85.37,0,0,0,276.59,189.06Zm0,139.9a54.63,54.63,0,1,1,54.62-54.63A54.7,54.7,0,0,1,276.59,329Z"/><path class="cls-2" d="M448.65,340.75V203.46a104,104,0,0,0-104-104H207.36a104,104,0,0,0-104,104V340.75a104,104,0,0,0,104,104H344.63A104,104,0,0,0,448.65,340.75Zm-312.73,0V203.46A71.44,71.44,0,0,1,207.36,132H344.63a71.43,71.43,0,0,1,71.44,71.43V340.75a71.43,71.43,0,0,1-71.44,71.43H207.36A71.44,71.44,0,0,1,135.92,340.75Z"/></g></g></svg>