<svg xmlns="http://www.w3.org/2000/svg" viewBox="0 0 551.33 551.33"><defs><style>.cls-1{fill:#396f72;}.cls-2{fill:#fff;}</style></defs><title>linkedinFichier 13</title><g id="Calque_2" data-name="Calque 2"><g id="Calque_3" data-name="Calque 3"><path class="cls-1" d="M275.67,551.33C123.66,551.33,0,427.67,0,275.66S123.66,0,275.67,0,551.33,123.66,551.33,275.66,427.67,551.33,275.67,551.33Z"/><path class="cls-2" d="M431.51,296.65V399.58a4.6,4.6,0,0,1-4.6,4.61H373.77a4.6,4.6,0,0,1-4.6-4.61V303.86c0-25.19-9-42.4-31.58-42.4-17.23,0-27.46,11.59-32,22.8-1.64,4-2.06,9.58-2.06,15.2V399.58a4.61,4.61,0,0,1-4.61,4.6H245.82a4.58,4.58,0,0,1-4.6-4.6c.11-25.49.65-149.18.11-178.25a4.58,4.58,0,0,1,4.6-4.66h53a4.6,4.6,0,0,1,4.6,4.6v22c-.13.21-.3.42-.41.62h.41v-.62c8.29-12.75,23.06-31,56.19-31,41,0,71.77,26.8,71.77,84.38ZM149,404.19h53.12a4.6,4.6,0,0,0,4.6-4.61V221.27a4.6,4.6,0,0,0-4.6-4.6H149a4.61,4.61,0,0,0-4.61,4.6V399.58A4.61,4.61,0,0,0,149,404.19Z"/><circle class="cls-2" cx="173.69" cy="159.45" r="33.37"/></g></g></svg>