<svg xmlns="http://www.w3.org/2000/svg" viewBox="0 0 239.18 239.18"><defs><style>.cls-1{fill:none;stroke:#012935;stroke-miterlimit:10;stroke-width:2px;}.cls-2{fill:#012935;}</style></defs><title>logoFichier 14</title><g id="Calque_2" data-name="Calque 2"><g id="Calque_3" data-name="Calque 3"><circle class="cls-1" cx="119.59" cy="119.59" r="118.59"/><path class="cls-2" d="M12,108.35l.36-3.07,19.08,2.25-.36,3.07Z"/><path class="cls-2" d="M20.36,87.25a13.1,13.1,0,0,0-1.48,1.87,7.32,7.32,0,0,0-1,2,3.53,3.53,0,0,0,0,2.33,2.06,2.06,0,0,0,1.46,1.25,2,2,0,0,0,1.49-.18,5.1,5.1,0,0,0,1.38-1.14c.43-.5.87-1,1.3-1.62a14.55,14.55,0,0,1,1.17-1.45,7.9,7.9,0,0,1,1.43-1.22A4.45,4.45,0,0,1,28,88.47a6,6,0,0,1,2.33.21,5.2,5.2,0,0,1,2.47,1.46,5.47,5.47,0,0,1,1.33,2.64,7.47,7.47,0,0,1-.19,3.54,10.29,10.29,0,0,1-.87,2.2,12.24,12.24,0,0,1-1.26,1.92A10.32,10.32,0,0,1,30.26,102L28.33,100a8.88,8.88,0,0,0,1.22-1.17,10.54,10.54,0,0,0,1.06-1.45,6.32,6.32,0,0,0,.66-1.53,5.17,5.17,0,0,0,.16-1.64,3,3,0,0,0-.5-1.55,2.43,2.43,0,0,0-1.44-.94,2.08,2.08,0,0,0-1.46.1,4.34,4.34,0,0,0-1.29.92,10.91,10.91,0,0,0-1.18,1.39c-.38.5-.78,1-1.22,1.55a8.57,8.57,0,0,1-1.47,1.42,4.65,4.65,0,0,1-1.8.84,4.83,4.83,0,0,1-2.24-.12,5.17,5.17,0,0,1-2.47-1.42A5,5,0,0,1,15.1,94a7,7,0,0,1,.08-3.11,10.83,10.83,0,0,1,1.39-3.22,12,12,0,0,1,1.83-2.16Z"/><path class="cls-2" d="M20.1,76.74,21.47,74,36,81.19l4.2-8.49L42.89,74,37.31,85.27Z"/><path class="cls-2" d="M44.41,71.27,34,52.18l.11-.14,21,5.73L52.9,60.52l-15.66-4.7.24-2.64,8.81,15.71Zm-2.25-8.64,4.05-5.14,2.69.78L43.6,65Z"/><path class="cls-2" d="M71.83,44.89,51.39,42.72l1-.27,8.21,10.39-2.45,1.92L45.85,39.12,46,39,66.2,41.35l-.67.26L57.21,31.06l2.41-1.88L71.89,44.84Z"/><path class="cls-2" d="M76.88,41.2,69.11,23.63l5-2.21a12.1,12.1,0,0,1,4.8-1.17,8.8,8.8,0,0,1,3.9.78,9.47,9.47,0,0,1,2.94,2.18,11.23,11.23,0,0,1,2,3,9.22,9.22,0,0,1,.87,3.86,8.9,8.9,0,0,1-.71,3.53,9.17,9.17,0,0,1-2,2.95,10.39,10.39,0,0,1-3.06,2.07Zm1.63-4L81,36.15a8.75,8.75,0,0,0,2.42-1.55,6.16,6.16,0,0,0,1.51-2.05,5.72,5.72,0,0,0,.48-2.46,7.21,7.21,0,0,0-.68-2.8,7.23,7.23,0,0,0-1.78-2.57,6,6,0,0,0-2.27-1.28,6.36,6.36,0,0,0-2.4-.23,7.2,7.2,0,0,0-2.2.57l-2.94,1.3Z"/><path class="cls-2" d="M122,11.46a8.56,8.56,0,0,1,3.73.82,5.44,5.44,0,0,1,2.35,2.17,6.46,6.46,0,0,1,.76,3.33,7.94,7.94,0,0,1-.41,2.28,5.65,5.65,0,0,1-1.17,2,5.48,5.48,0,0,1-2,1.44,7.35,7.35,0,0,1-3,.5l-2.8-.06-.14,6.65-3.09-.07.42-19.21Zm.22,9.56a3.79,3.79,0,0,0,1.71-.31,2.83,2.83,0,0,0,1.07-.83,3.55,3.55,0,0,0,.58-1.08,3.59,3.59,0,0,0,.19-1,3.87,3.87,0,0,0-.13-1,3.72,3.72,0,0,0-.49-1.08,2.6,2.6,0,0,0-1-.87,3.75,3.75,0,0,0-1.69-.36l-2.85-.07-.14,6.6Z"/><path class="cls-2" d="M129.82,30.81,142.33,13l.18,0,4.13,21.34-3.43-.73L140.5,17.54l2.47-.95L132.78,31.44ZM136.57,25l6.4,1.37.49,2.75-8.36-1.79Z"/><path class="cls-2" d="M163.56,20.75A9.46,9.46,0,0,1,166,22.33a6.63,6.63,0,0,1,1.54,2,5.07,5.07,0,0,1,.52,2.34,6.63,6.63,0,0,1-.63,2.61,7.81,7.81,0,0,1-1.25,1.92,5.77,5.77,0,0,1-1.87,1.41,5.53,5.53,0,0,1-2.48.5,7.68,7.68,0,0,1-3.06-.78l-2.55-1.16-2.76,6.08L150.67,36l7.94-17.5ZM160,29.61a4,4,0,0,0,1.67.41,2.77,2.77,0,0,0,1.32-.3,3.21,3.21,0,0,0,1-.73,3.76,3.76,0,0,0,.6-.91,3.89,3.89,0,0,0,.29-1,3.6,3.6,0,0,0,0-1.22,2.81,2.81,0,0,0-.6-1.21,3.6,3.6,0,0,0-1.37-1l-2.6-1.18-2.73,6Zm2.26,3.08,1.25,9.12-3.27-1.48-1.36-9.08Z"/><path class="cls-2" d="M165.82,43.1l18.79-10.93.15.11-5.15,21.11-2.81-2.1,4.27-15.78,2.64.17-15.46,9.24Zm8.58-2.49,5.24,3.92-.7,2.7-6.85-5.11Z"/><path class="cls-2" d="M182.64,56.42,197.29,44l3.53,4.17a12.21,12.21,0,0,1,2.49,4.27,8.83,8.83,0,0,1,.35,4,9.26,9.26,0,0,1-1.26,3.44,11.07,11.07,0,0,1-2.31,2.72,9.48,9.48,0,0,1-3.45,1.93,9,9,0,0,1-7-.81,10.38,10.38,0,0,1-2.85-2.36Zm4.25.44,1.76,2.08a8.6,8.6,0,0,0,2.17,1.88,6.27,6.27,0,0,0,2.39.86,5.67,5.67,0,0,0,2.5-.24,7.21,7.21,0,0,0,2.5-1.44,7.35,7.35,0,0,0,2-2.44,6.09,6.09,0,0,0,.58-2.54,6.4,6.4,0,0,0-.46-2.36,7.89,7.89,0,0,0-1.17-1.95L197,48.26Z"/><path class="cls-2" d="M212.14,63.58l1.56,2.66L197.13,76l-1.56-2.67Z"/><path class="cls-2" d="M218.21,85.44a13.45,13.45,0,0,0,.06-2.38,7,7,0,0,0-.47-2.2A3.62,3.62,0,0,0,216.37,79a2.09,2.09,0,0,0-1.92-.11,2,2,0,0,0-1.07,1,4.84,4.84,0,0,0-.41,1.75c-.05.66-.07,1.35-.07,2.07a13,13,0,0,1-.05,1.87,7.59,7.59,0,0,1-.41,1.83,4.34,4.34,0,0,1-1.05,1.62,6.1,6.1,0,0,1-2,1.24,5.19,5.19,0,0,1-2.84.33,5.42,5.42,0,0,1-2.66-1.31,7.41,7.41,0,0,1-2-2.93,10.39,10.39,0,0,1-.63-2.29,11,11,0,0,1-.15-2.28,10.32,10.32,0,0,1,.29-2.17l2.72.39a8.45,8.45,0,0,0-.27,1.67,9.72,9.72,0,0,0,0,1.79,5.83,5.83,0,0,0,.39,1.62,5.29,5.29,0,0,0,.86,1.4,2.94,2.94,0,0,0,1.33.93,2.38,2.38,0,0,0,1.72-.12,2.07,2.07,0,0,0,1.1-.95,4.6,4.6,0,0,0,.48-1.52,10.69,10.69,0,0,0,.1-1.82c0-.62,0-1.28,0-2a8.51,8.51,0,0,1,.31-2,4.56,4.56,0,0,1,.93-1.75A4.63,4.63,0,0,1,213,76.06a5.22,5.22,0,0,1,2.82-.36,5,5,0,0,1,2.49,1.2,7,7,0,0,1,1.81,2.53,10.59,10.59,0,0,1,.84,3.4,11.93,11.93,0,0,1-.15,2.84Z"/><path class="cls-2" d="M224.8,93.72l2.34,12.53-2.91.54-1.77-9.5-5,.94,1.58,8.46-2.91.54-1.58-8.46-5.13,1,1.83,9.86-2.9.54-2.41-12.89Z"/><path class="cls-2" d="M16.16,140.8a3.43,3.43,0,0,1,.08-1.75,3.09,3.09,0,0,1,.91-1.36,3.22,3.22,0,0,1,1.53-.73,3.12,3.12,0,0,1,1.69.11,3.35,3.35,0,0,1,1.39.93,3.16,3.16,0,0,1,.76,1.54,2.68,2.68,0,0,1-.27,1.94,3.68,3.68,0,0,1-1.43,1.39L17.72,138l.48-.32,2.85,4.45-.24-.11a3,3,0,0,0,.9-1,2,2,0,0,0,.18-1.4,2.4,2.4,0,0,0-.59-1.18,2.66,2.66,0,0,0-1.09-.7,2.58,2.58,0,0,0-1.36-.07,2.67,2.67,0,0,0-1.2.57,2.51,2.51,0,0,0-.76,1.08,2.47,2.47,0,0,0-.09,1.38,2.69,2.69,0,0,0,.37.91,3.21,3.21,0,0,0,.65.72l-.45.47a3.63,3.63,0,0,1-.76-.88A3.33,3.33,0,0,1,16.16,140.8Z"/><path class="cls-2" d="M19.83,152a3.2,3.2,0,0,1-.79-.77,3.27,3.27,0,0,1-.49-1,3.35,3.35,0,0,1-.08-1.74,3.07,3.07,0,0,1,2.23-2.31,3,3,0,0,1,1.7-.05,3.21,3.21,0,0,1,2.28,2.21,3.43,3.43,0,0,1,.16,1.2,2.75,2.75,0,0,1-.24,1.08l-.59-.24a2.93,2.93,0,0,0,.2-.86,2.62,2.62,0,0,0-.1-1,2.38,2.38,0,0,0-.69-1.11,2.46,2.46,0,0,0-1.16-.61,2.49,2.49,0,0,0-1.35.05,2.57,2.57,0,0,0-1.79,1.84,2.62,2.62,0,0,0,0,1.36,2.41,2.41,0,0,0,.4.8,2.59,2.59,0,0,0,.59.6Z"/><path class="cls-2" d="M23.31,154.44a3.23,3.23,0,0,1,1.68-.2,3.3,3.3,0,0,1,1.52.66,3.29,3.29,0,0,1,.59,4.64,3.35,3.35,0,0,1-3,1.21,3.18,3.18,0,0,1-1.52-.65,3.28,3.28,0,0,1-1-1.41,3.31,3.31,0,0,1-.23-1.71,3,3,0,0,1,.63-1.51A3.29,3.29,0,0,1,23.31,154.44Zm.26.7a2.56,2.56,0,0,0-1.1.8,2.5,2.5,0,0,0-.38,2.51,2.46,2.46,0,0,0,.8,1.07,2.65,2.65,0,0,0,1.21.5,2.61,2.61,0,0,0,1.34-.18,2.56,2.56,0,0,0,1.1-.8,2.63,2.63,0,0,0,.54-1.2,2.41,2.41,0,0,0-.15-1.32,2.38,2.38,0,0,0-.82-1.07,2.82,2.82,0,0,0-1.24-.48A2.61,2.61,0,0,0,23.57,155.14Z"/><path class="cls-2" d="M35.26,160l.33.66-10.77,5.22-.32-.67Z"/><path class="cls-2" d="M28,172.17a3.37,3.37,0,0,1-.48-1.69A3,3,0,0,1,28,168.9a3.2,3.2,0,0,1,1.22-1.17,3.1,3.1,0,0,1,1.64-.43,3.17,3.17,0,0,1,1.61.44A3.22,3.22,0,0,1,33.67,169a2.8,2.8,0,0,1,.36,1.93,3.71,3.71,0,0,1-.93,1.77L28.63,169l.35-.46,4.11,3.32-.27,0a2.81,2.81,0,0,0,.54-1.25,2,2,0,0,0-.26-1.38,2.38,2.38,0,0,0-.93-.93,2.62,2.62,0,0,0-1.26-.32,2.43,2.43,0,0,0-1.31.36,2.65,2.65,0,0,0-1,.92,2.46,2.46,0,0,0,0,2.6,2.59,2.59,0,0,0,.65.75,3.27,3.27,0,0,0,.83.47l-.28.6a4,4,0,0,1-1-.6A3.17,3.17,0,0,1,28,172.17Z"/><path class="cls-2" d="M37.06,185.42a3.08,3.08,0,0,1-.66-1.49,3,3,0,0,1,.19-1.6,3.35,3.35,0,0,1,1-1.37,3.26,3.26,0,0,1,1.6-.75,3,3,0,0,1,1.6.2,3.43,3.43,0,0,1,2,2.6,2.77,2.77,0,0,1-.2,1.65l-.35.12L48.22,180l.46.58-9.31,7.5-.47-.59,1.47-1.18-.17.34a3.15,3.15,0,0,1-1.68-.16A3.41,3.41,0,0,1,37.06,185.42Zm.62-.26a2.65,2.65,0,0,0,1,.8,2.57,2.57,0,0,0,1.22.19,2.54,2.54,0,0,0,1.17-.44l.62-.5a2.31,2.31,0,0,0,.52-1.05,2.76,2.76,0,0,0,0-1.18,2.55,2.55,0,0,0-.52-1.09,2.67,2.67,0,0,0-1.07-.8,2.61,2.61,0,0,0-1.3-.15,2.71,2.71,0,0,0-1.27.58,2.61,2.61,0,0,0-.8,1.1,2.68,2.68,0,0,0-.15,1.32A2.44,2.44,0,0,0,37.68,185.16Z"/><path class="cls-2" d="M44.59,193.87a3.25,3.25,0,0,1-.89-1.5,3,3,0,0,1,0-1.64,3.2,3.2,0,0,1,.88-1.45,3.12,3.12,0,0,1,1.47-.84,3.41,3.41,0,0,1,1.68,0,3.22,3.22,0,0,1,1.47.87,2.73,2.73,0,0,1,.84,1.77,3.53,3.53,0,0,1-.44,2l-5.26-2.37.23-.53,4.82,2.16-.26,0a2.88,2.88,0,0,0,.2-1.34,2,2,0,0,0-.61-1.27,2.48,2.48,0,0,0-2.43-.65,2.58,2.58,0,0,0-1.18.68,2.7,2.7,0,0,0-.69,1.14,2.46,2.46,0,0,0,0,1.32,2.43,2.43,0,0,0,.68,1.2,2.4,2.4,0,0,0,.81.56,3.57,3.57,0,0,0,.93.25l-.12.64a3.91,3.91,0,0,1-1.11-.33A2.93,2.93,0,0,1,44.59,193.87Z"/><path class="cls-2" d="M55.48,203.46a3.43,3.43,0,0,1-.77-.83,2.08,2.08,0,0,1-.36-1.08l.57-.18a2.53,2.53,0,0,0,.28.87,2.21,2.21,0,0,0,.61.72,2,2,0,0,0,.6.33,1.09,1.09,0,0,0,.64,0,1,1,0,0,0,.57-.41.91.91,0,0,0,.22-.69,2.17,2.17,0,0,0-.25-.68c-.14-.22-.29-.45-.46-.69a3,3,0,0,1-.51-1.15,1.33,1.33,0,0,1,.3-1.11,1.6,1.6,0,0,1,.73-.55,1.67,1.67,0,0,1,.89-.06,2.06,2.06,0,0,1,.89.41,3.23,3.23,0,0,1,.67.71,2.12,2.12,0,0,1,.37,1l-.57.21a1.32,1.32,0,0,0-.25-.78,3.15,3.15,0,0,0-.49-.56,1.73,1.73,0,0,0-.51-.25,1.32,1.32,0,0,0-.59,0,.75.75,0,0,0-.49.33.82.82,0,0,0-.2.59,1.6,1.6,0,0,0,.19.61l.37.62a5.05,5.05,0,0,1,.48.79,2,2,0,0,1,.21.81,1.29,1.29,0,0,1-.32.84,1.86,1.86,0,0,1-.77.63,1.67,1.67,0,0,1-1,.11A2.54,2.54,0,0,1,55.48,203.46Z"/><path class="cls-2" d="M62.19,208.26a1.83,1.83,0,0,1-.64-2.6L64,201.88l.62.4-2.29,3.6a1.51,1.51,0,0,0-.21,1,1.42,1.42,0,0,0,.66.93,2.19,2.19,0,0,0,1.11.34,2.51,2.51,0,0,0,1.17-.27,2.37,2.37,0,0,0,.94-.87l1.76-2.76.63.4L65,209.87l-.55-.35,1-1.68-.13.42a2.08,2.08,0,0,1-.94.42,2.81,2.81,0,0,1-1.12,0A3.35,3.35,0,0,1,62.19,208.26Z"/><path class="cls-2" d="M72.58,207.06l-.81,1.71,0-.25a2.42,2.42,0,0,1,1-.56,3.07,3.07,0,0,1,1.16-.1,2.76,2.76,0,0,1,1,.3l-.37.62a2.56,2.56,0,0,0-1.28-.32,2.49,2.49,0,0,0-1.2.31,2.17,2.17,0,0,0-.85.9l-1.53,2.87-.65-.34L72,206.76Z"/><path class="cls-2" d="M75.63,215.45l2.24-5-1-.44.27-.61,1,.44L79.42,207a3.47,3.47,0,0,1,1.35-1.73,1.78,1.78,0,0,1,1.65,0,2.55,2.55,0,0,1,.41.24,1.61,1.61,0,0,1,.34.35l-.51.36a.87.87,0,0,0-.17-.21,1.13,1.13,0,0,0-.27-.16,1.17,1.17,0,0,0-1.12,0,3.06,3.06,0,0,0-1,1.39l-1.28,2.84,1.88.85-.28.61-1.87-.84-2.25,5Z"/><path class="cls-2" d="M82.31,216.78l-1.22,1.27-1.23,1.28-.59-.22,1.17-1.31,1.15-1.3Z"/><path class="cls-2" d="M94.8,222.22a3.21,3.21,0,0,1-1.5-.84,2.83,2.83,0,0,1-.81-1.44l.18-.23-1.13,4.63-.72-.17,2.18-8.9.64.16-.4,2,0-.47a3.38,3.38,0,0,1,3.23-1,3,3,0,0,1,1.44.79,3.07,3.07,0,0,1,.82,1.39,3.23,3.23,0,0,1,0,1.72,3.13,3.13,0,0,1-.82,1.51,3,3,0,0,1-1.4.84A3.34,3.34,0,0,1,94.8,222.22Zm0-.62a2.61,2.61,0,0,0,1.36,0,2.66,2.66,0,0,0,1.14-.68,2.52,2.52,0,0,0,.65-1.2,2.55,2.55,0,0,0,0-1.37,2.6,2.6,0,0,0-.67-1.13,2.64,2.64,0,0,0-2.47-.63,2.49,2.49,0,0,0-1.09.6,2.78,2.78,0,0,0-.69,1.08l-.12.49A2.48,2.48,0,0,0,93,220a2.64,2.64,0,0,0,.69,1A2.49,2.49,0,0,0,94.82,221.6Z"/><path class="cls-2" d="M105.12,224.17a3.24,3.24,0,0,1-1.53-.61,3,3,0,0,1-1-1.26,3.3,3.3,0,0,1-.19-1.73,3.42,3.42,0,0,1,.66-1.68,3,3,0,0,1,1.34-.95,3.62,3.62,0,0,1,1.75-.15,2.76,2.76,0,0,1,1.47.68,2.84,2.84,0,0,1,.88,1.36l-.14.2.32-1.72.66.09-.81,6.1-.74-.1.25-1.89.12.31a2.05,2.05,0,0,1-.45.56,3.4,3.4,0,0,1-1.62.77A3.33,3.33,0,0,1,105.12,224.17Zm.24-.6a2.59,2.59,0,0,0,1.28-.13,2.38,2.38,0,0,0,1-.68,2.34,2.34,0,0,0,.55-1.14l.12-.87a2.35,2.35,0,0,0-.36-1.09,2.57,2.57,0,0,0-.8-.84,2.66,2.66,0,0,0-1.12-.42,2.6,2.6,0,0,0-1.3.15,2.43,2.43,0,0,0-1,.78,2.62,2.62,0,0,0-.53,1.31,2.66,2.66,0,0,0,.17,1.35,2.71,2.71,0,0,0,.81,1.06A2.47,2.47,0,0,0,105.36,223.57Z"/><path class="cls-2" d="M116.33,225.1a3,3,0,0,1-1.56-.45,3.08,3.08,0,0,1-1.1-1.19,3.35,3.35,0,0,1-.37-1.68,3.22,3.22,0,0,1,.47-1.7A3,3,0,0,1,115,219a3.43,3.43,0,0,1,1.62-.35,3.38,3.38,0,0,1,1.67.5,2.81,2.81,0,0,1,1.12,1.23l-.13.34.19-7.61.74,0-.31,11.95-.75,0,.05-1.89.15.35a3.12,3.12,0,0,1-1.21,1.18A3.41,3.41,0,0,1,116.33,225.1Zm.2-.64a2.52,2.52,0,0,0,1.29-.27,2.42,2.42,0,0,0,.93-.81,2.4,2.4,0,0,0,.42-1.18l0-.78a2.34,2.34,0,0,0-.46-1.09,2.87,2.87,0,0,0-.89-.77,2.54,2.54,0,0,0-1.17-.3,2.6,2.6,0,0,0-1.3.3,2.51,2.51,0,0,0-1,.88,2.6,2.6,0,0,0-.38,1.35,2.48,2.48,0,0,0,.31,1.32,2.64,2.64,0,0,0,.91,1A2.48,2.48,0,0,0,116.53,224.46Z"/><path class="cls-2" d="M127.61,224.85a3,3,0,0,1-1.6-.29,3.11,3.11,0,0,1-1.22-1.06,3.4,3.4,0,0,1-.54-1.63,3.27,3.27,0,0,1,.28-1.74,2.92,2.92,0,0,1,1.07-1.21,3.37,3.37,0,0,1,1.57-.52,3.29,3.29,0,0,1,1.71.32,2.81,2.81,0,0,1,1.25,1.1l-.1.36-.61-7.59.74-.06,1,11.92-.75.06-.15-1.89.18.34a3,3,0,0,1-1.08,1.29A3.32,3.32,0,0,1,127.61,224.85Zm.14-.65a2.68,2.68,0,0,0,1.24-.41,2.64,2.64,0,0,0,.85-.91,2.36,2.36,0,0,0,.29-1.21l-.06-.79a2.34,2.34,0,0,0-.57-1,2.84,2.84,0,0,0-1-.68,2.66,2.66,0,0,0-1.2-.18,2.61,2.61,0,0,0-1.26.44,2.52,2.52,0,0,0-.85,1,2.63,2.63,0,0,0,1.22,3.52A2.47,2.47,0,0,0,127.75,224.2Z"/><path class="cls-2" d="M133.78,212l.73-.12,1.85,11.82-.73.11Z"/><path class="cls-2" d="M143.31,222.47a3.34,3.34,0,0,1-1.75,0,3.06,3.06,0,0,1-1.38-.88,3.38,3.38,0,0,1-.71-3.2,3.29,3.29,0,0,1,.9-1.41,3.15,3.15,0,0,1,1.52-.8,2.75,2.75,0,0,1,2,.22,3.6,3.6,0,0,1,1.42,1.4L140.47,221l-.33-.47,4.38-3-.11.25a2.85,2.85,0,0,0-1-.88,2.07,2.07,0,0,0-1.4-.15,2.42,2.42,0,0,0-1.16.62,2.65,2.65,0,0,0-.68,1.11,2.6,2.6,0,0,0,0,1.36,2.64,2.64,0,0,0,.6,1.19,2.4,2.4,0,0,0,1.09.73,2.47,2.47,0,0,0,1.38.06,2.56,2.56,0,0,0,.91-.4,3.1,3.1,0,0,0,.69-.66l.49.44a3.82,3.82,0,0,1-.86.78A3.06,3.06,0,0,1,143.31,222.47Z"/><path class="cls-2" d="M164.45,215.13l-.18.08-.28.11-.37.16-8.29-4.73c-.13-.1-.28-.21-.44-.35a3.25,3.25,0,0,1-.46-.45,2.8,2.8,0,0,1-.36-.61,2.47,2.47,0,0,1-.18-1.3,2.43,2.43,0,0,1,.5-1.17,2.69,2.69,0,0,1,1.12-.81,3.16,3.16,0,0,1,1.36-.28,4.75,4.75,0,0,1,1.2.17l-.14.62a5.34,5.34,0,0,0-1.09-.14,2.58,2.58,0,0,0-1,.19,1.9,1.9,0,0,0-1.07,1,1.67,1.67,0,0,0,0,1.4,2,2,0,0,0,.38.6,3.71,3.71,0,0,0,.42.4l.22.16Zm-7-3.23a2.8,2.8,0,0,0-.86.57,3.16,3.16,0,0,0-.64.86,2.62,2.62,0,0,0-.3,1,2.28,2.28,0,0,0,.18,1.08,2.18,2.18,0,0,0,.87,1,2.62,2.62,0,0,0,1.31.4,3.39,3.39,0,0,0,1.45-.27,3.65,3.65,0,0,0,1.07-.69,3,3,0,0,0,.69-.93,2.1,2.1,0,0,0,.26-1l.65.28a3.28,3.28,0,0,1-.73,1.68,4.28,4.28,0,0,1-1.74,1.29,4,4,0,0,1-1.89.33,3.3,3.3,0,0,1-1.63-.55,2.85,2.85,0,0,1-1.06-1.29,2.66,2.66,0,0,1-.21-1.3,3.19,3.19,0,0,1,.36-1.27,3.89,3.89,0,0,1,.8-1.09,4,4,0,0,1,1.13-.77Zm3.86-2.31.7-.29.15,4.86-.67-.17Z"/><path class="cls-2" d="M174.4,202.39l4.85,3.06-.14.11-1.05-5.62.63-.42,1.22,7L175.83,204l.93,4.65-6-3.82.62-.42,4.95,3.13-.27.09-.81-4-1.37-.85Z"/><path class="cls-2" d="M187.56,200.37a3.15,3.15,0,0,1-1.48.72,2.88,2.88,0,0,1-1.59-.12,3.64,3.64,0,0,1-2.21-2.64,2.9,2.9,0,0,1,.19-1.62,3.6,3.6,0,0,1,1.06-1.4,2.69,2.69,0,0,1,1.49-.64,2.83,2.83,0,0,1,1.59.26l.06.24-1.06-1.39.51-.43,4,4.69-.56.48-1.24-1.45.31.11a1.82,1.82,0,0,1,.11.72,3.25,3.25,0,0,1-.13.85,3.34,3.34,0,0,1-.38.87A3.5,3.5,0,0,1,187.56,200.37Zm-.29-.59a2.61,2.61,0,0,0,.76-1,2.36,2.36,0,0,0,.17-1.2,2.48,2.48,0,0,0-.48-1.17l-.57-.67a2.38,2.38,0,0,0-1.05-.47,2.63,2.63,0,0,0-1.15,0,2.44,2.44,0,0,0-1.07.55,2.54,2.54,0,0,0-.76,1.07,2.45,2.45,0,0,0-.12,1.29,2.66,2.66,0,0,0,.62,1.26,2.6,2.6,0,0,0,1.12.78,2.69,2.69,0,0,0,1.32.12A2.51,2.51,0,0,0,187.27,199.78Z"/><path class="cls-2" d="M193.74,194.58l-8.58-8.34.52-.53,8.58,8.33Zm-1.26-1.91-.57-.47.25-5,.6,0Zm-.1-2.43,4.86.73-.6.63-4.33-.7Z"/><path class="cls-2" d="M201.46,186.23a3.29,3.29,0,0,1-1.41,1.05,3,3,0,0,1-1.62.16,3.17,3.17,0,0,1-1.54-.72,3.13,3.13,0,0,1-1-1.37,3.38,3.38,0,0,1-.16-1.67,3.26,3.26,0,0,1,.71-1.56,2.8,2.8,0,0,1,1.67-1,3.65,3.65,0,0,1,2,.24l-1.8,5.48-.56-.17,1.64-5,.07.26a2.8,2.8,0,0,0-1.35-.06,2,2,0,0,0-1.2.74,2.41,2.41,0,0,0-.54,1.21,2.55,2.55,0,0,0,.15,1.28,2.45,2.45,0,0,0,.8,1.1,2.56,2.56,0,0,0,1.21.57,2.44,2.44,0,0,0,1.31-.09,2.48,2.48,0,0,0,1.13-.81,2.68,2.68,0,0,0,.47-.86,3.17,3.17,0,0,0,.14-.95l.66,0a3.94,3.94,0,0,1-.21,1.15A3.18,3.18,0,0,1,201.46,186.23Z"/><path class="cls-2" d="M207.84,177.54a3.19,3.19,0,0,1-1.36,1.17,3.06,3.06,0,0,1-1.66.27l-.26-.37,1.67,1.12-.4.61-10-6.61.41-.61,6.35,4.21-.4-.15a2.68,2.68,0,0,1-.33-1.6,3.56,3.56,0,0,1,.6-1.68,3.08,3.08,0,0,1,1.22-1.08,3.14,3.14,0,0,1,1.57-.31,3.63,3.63,0,0,1,2.84,1.92,2.91,2.91,0,0,1,.28,1.58A3.51,3.51,0,0,1,207.84,177.54Zm-.61-.25a2.61,2.61,0,0,0,.47-1.32,2.37,2.37,0,0,0-.28-1.25,2.77,2.77,0,0,0-.95-1,2.67,2.67,0,0,0-1.26-.45,2.46,2.46,0,0,0-1.28.23,2.4,2.4,0,0,0-1,.92,2.76,2.76,0,0,0-.44,1.14,2.62,2.62,0,0,0,.11,1.15,2.45,2.45,0,0,0,.61,1l.8.53a2.27,2.27,0,0,0,1.13.26,2.54,2.54,0,0,0,1.18-.31A2.57,2.57,0,0,0,207.23,177.29Z"/><path class="cls-2" d="M208.76,169.91a3.21,3.21,0,0,1-1.34-4.41,3.34,3.34,0,0,1,1.16-1.3,3.15,3.15,0,0,1,1.58-.48,3.07,3.07,0,0,1,1.64.38,3.31,3.31,0,0,1,1.26,1.14,3.1,3.1,0,0,1,.49,1.58,3.3,3.3,0,0,1-.4,1.7A3.38,3.38,0,0,1,212,169.8a3.14,3.14,0,0,1-1.56.51A3.26,3.26,0,0,1,208.76,169.91Zm.36-.65a2.59,2.59,0,0,0,2.57-.06,2.44,2.44,0,0,0,.9-1,2.37,2.37,0,0,0,.29-1.29,2.6,2.6,0,0,0-.4-1.24,2.54,2.54,0,0,0-1-.91,2.61,2.61,0,0,0-2.58.06,2.37,2.37,0,0,0-.91,1,2.4,2.4,0,0,0-.28,1.32,2.8,2.8,0,0,0,.44,1.25A2.59,2.59,0,0,0,209.12,169.26Z"/><path class="cls-2" d="M217.54,159a3.26,3.26,0,0,1-1,1.33,3,3,0,0,1-1.47.64,3.68,3.68,0,0,1-3.18-1.29,2.91,2.91,0,0,1-.6-1.53,3.69,3.69,0,0,1,.28-1.73,2.91,2.91,0,0,1,2.55-1.78l.16.18-1.58-.73.24-.62,5.72,2.28-.28.69-1.76-.71.32,0a2,2,0,0,1,.43.58,3.17,3.17,0,0,1,.29.82,3.63,3.63,0,0,1,.07.94A3.5,3.5,0,0,1,217.54,159Zm-.53-.38a2.71,2.71,0,0,0,.2-1.27,2.54,2.54,0,0,0-.42-1.14,2.5,2.5,0,0,0-1-.81l-.82-.33a2.49,2.49,0,0,0-1.15.08,2.85,2.85,0,0,0-1,.57A2.69,2.69,0,0,0,212,158a2.36,2.36,0,0,0,.5,1.2,2.59,2.59,0,0,0,1.14.82,2.53,2.53,0,0,0,1.35.17,2.61,2.61,0,0,0,1.22-.52A2.4,2.4,0,0,0,217,158.64Z"/><path class="cls-2" d="M214.51,148.8l1.83.46-.25,0a2.42,2.42,0,0,1-.75-.9,3,3,0,0,1-.32-1.12,2.67,2.67,0,0,1,.09-1.07l.68.24a2.7,2.7,0,0,0-.07,1.32,2.58,2.58,0,0,0,.55,1.11,2.16,2.16,0,0,0,1,.67l3.12.94-.21.7-5.9-1.77Z"/><path class="cls-2" d="M222.78,141.94a3.06,3.06,0,0,1-.73,1.46,3.11,3.11,0,0,1-1.37.86,3.64,3.64,0,0,1-3.31-.71,2.94,2.94,0,0,1-.85-1.36,3.32,3.32,0,0,1-.05-1.66,3.25,3.25,0,0,1,.79-1.54,2.83,2.83,0,0,1,1.41-.89l.31.2-7.45-1.57.15-.73,11.7,2.47-.15.74-1.85-.39.37-.08a2.94,2.94,0,0,1,.93,1.4A3.33,3.33,0,0,1,222.78,141.94Zm-.59-.31a2.79,2.79,0,0,0,0-1.32,2.44,2.44,0,0,0-.63-1.06,2.35,2.35,0,0,0-1.08-.63l-.77-.16a2.41,2.41,0,0,0-1.15.25,3,3,0,0,0-.92.74,2.59,2.59,0,0,0-.51,1.1,2.55,2.55,0,0,0,.76,2.43,2.68,2.68,0,0,0,1.25.62,2.6,2.6,0,0,0,1.36-.07,2.84,2.84,0,0,0,1.12-.72A2.53,2.53,0,0,0,222.19,141.63Z"/><circle class="cls-2" cx="21.29" cy="125.08" r="2.41"/><circle class="cls-2" cx="217.9" cy="125.08" r="2.41"/><path class="cls-2" d="M119.59,36.91a82.68,82.68,0,1,0,82.68,82.68A82.77,82.77,0,0,0,119.59,36.91ZM199,119.59a78.87,78.87,0,0,1-9.61,37.84,10.39,10.39,0,0,1-5.51-4.34,10.21,10.21,0,0,1-1.49-8.06.78.78,0,0,0-.76-1,.81.81,0,0,0-.57.25,10.18,10.18,0,0,1-17.51-6,12.45,12.45,0,0,1,3.53-9.85.78.78,0,0,0-1.1-1.12,13.94,13.94,0,0,0-4,8.82c-1.94,3.74-3.92,5.64-6.23,6a3.86,3.86,0,0,1-3.69-2.34,2,2,0,0,1,.35-2.39.79.79,0,0,0-.82-1.32,3.62,3.62,0,0,1-3.39-6.36.8.8,0,0,0,.27-1,.79.79,0,0,0-1-.38c-2.84,1-5.39,1.84-7.8,1.2a4.93,4.93,0,0,1-3.11-2.78,2.77,2.77,0,0,1,.08-2.53,1,1,0,0,0,.06-.18,13.44,13.44,0,0,0,3.84.49.8.8,0,0,0,.48-.14.93.93,0,0,0,.37-.81.94.94,0,0,0-.57-.7,1.16,1.16,0,0,0-1,.07,8.45,8.45,0,0,1-4.18-1,3.69,3.69,0,0,1-1.85-3.8.81.81,0,0,0-.15-.7.86.86,0,0,0-.66-.28,17.39,17.39,0,0,1-6.11-.5,8,8,0,0,1-4.67-3.32.8.8,0,0,0-1.09-.26.78.78,0,0,0-.25,1.08,9.27,9.27,0,0,0,4.64,3.65l0,0a9.13,9.13,0,0,1-16.56-5,.79.79,0,0,0-1.53-.23c-1.46,4.18-5.87,8.07-10.45,7.08-2.54-.55-4.11-3.07-4.48-5.17-.18-1-.36-3.39,1.71-4.71a.8.8,0,0,0,.36-.61.77.77,0,0,0-.27-.65A9.9,9.9,0,0,1,93,95.14a10.64,10.64,0,0,1,13.93-2.33l.44.31c1.22.88,2.74,2,4.4,1.37a5,5,0,0,0,2.35-2.35c4.07-6.54,10.72-10.85,17.36-11.23,7.32-.44,14.54,4.49,16.11,11a.79.79,0,0,0,1.38.3,9.28,9.28,0,0,1,16.61,5.46.76.76,0,0,0,.41.67.82.82,0,0,0,.79,0,7.26,7.26,0,0,1,10.78,8.26.78.78,0,0,0,.33.89.8.8,0,0,0,1-.07,18,18,0,0,1,18.55-3.65A79.83,79.83,0,0,1,199,119.59Zm-114-10a13.79,13.79,0,0,1-9.8,2.37c-2.06-.21-3.4-1.11-3.78-2.51a3.31,3.31,0,0,1,1.19-3.42,2.4,2.4,0,0,1,1.45-.48,3.62,3.62,0,0,1,1.94.65A21.61,21.61,0,0,0,85,109.63ZM77.53,97.42a2.13,2.13,0,0,1,1.55-1.75,1.64,1.64,0,0,1,.38,0,2,2,0,0,1,1.6,1,13.93,13.93,0,0,0,4.53,4.23,8.84,8.84,0,0,1-6.43-1C78,99.22,77.4,98.35,77.53,97.42ZM100,161a20.38,20.38,0,0,0-9.22-2.85,3.77,3.77,0,0,0,.26-.66,2.9,2.9,0,0,0,0-1.28,3.28,3.28,0,0,0,.77-.15,3,3,0,0,0,.94-.53c.08-.07.14-.15.21-.22l.49,0h0l.66,0c.43.05,1.07.14,1.89.29a28.44,28.44,0,0,1,2.89.73,23.3,23.3,0,0,1,3.58,1.46,19.47,19.47,0,0,1,3.82,2.47c.62.52,1.2,1.12,1.8,1.72a20.8,20.8,0,0,1,1.57,2.07,13.72,13.72,0,0,1,1.28,2.36l.55,1.26c.15.44.26.89.39,1.34l.37,1.34.23,1.43a17.41,17.41,0,0,1,.28,2.85,22.94,22.94,0,0,1-.49,5.67,22.52,22.52,0,0,1-1.92,5.19l-.63,1.18-.73,1.09a19.94,19.94,0,0,1-1.55,2c-.53.64-1.13,1.18-1.67,1.75L104.14,193c-.6.41-1.16.82-1.71,1.19l-1.63.94c-.8.38-1.53.73-2.19,1a78.54,78.54,0,0,1-8.84-3c9.79-1.81,15.76-8.4,17.47-14.94A14.72,14.72,0,0,0,100,161Zm-1.26,35.18c.64-.24,1.34-.54,2.12-.89l1.66-.91c.57-.35,1.14-.75,1.75-1.16l1.79-1.43c.55-.56,1.18-1.1,1.73-1.73a20.53,20.53,0,0,0,1.63-2l.77-1.1c.23-.39.45-.79.68-1.19a23,23,0,0,0,2.1-5.27,23.33,23.33,0,0,0,.65-5.85,17.7,17.7,0,0,0-.21-2.94l-.19-1.44-.36-1.45c-.13-.47-.23-.95-.37-1.42l-.55-1.34a15.14,15.14,0,0,0-1.29-2.54,23.44,23.44,0,0,0-1.62-2.25c-.62-.65-1.23-1.31-1.88-1.88a21,21,0,0,0-4-2.73A23.32,23.32,0,0,0,99.42,155a27.08,27.08,0,0,0-3-.85c-.86-.19-1.54-.3-2-.36l-.71-.08a2.49,2.49,0,0,0-1.52-2.37,2.22,2.22,0,0,1,.7,3,1.94,1.94,0,0,1-.25.29l-.3.22a2,2,0,0,1-.7.24,1.64,1.64,0,0,1-1.29-.3.64.64,0,0,0-.48-.13,4.1,4.1,0,0,0,.22-.41,3,3,0,0,0,.26-1,2.48,2.48,0,0,0-.07-1,8.92,8.92,0,0,1-.35.86,7.2,7.2,0,0,1-.44.79,5.06,5.06,0,0,1-.61.79,4.83,4.83,0,0,1-.72.71,7.18,7.18,0,0,1-.73.52,7.88,7.88,0,0,1-.81.46,2.58,2.58,0,0,0,1,0,3.44,3.44,0,0,0,1-.37,5.35,5.35,0,0,0,.76-.61.5.5,0,0,0,.09.23l.08.14a1.57,1.57,0,0,1,0,1.31,2.17,2.17,0,0,1-.3.68A1.63,1.63,0,0,1,89,158a2.18,2.18,0,0,1-.26.22,2.33,2.33,0,0,1-.36.22l-.37.16a4.37,4.37,0,0,1-.83.19,7.55,7.55,0,0,1-1.84,0h0a.74.74,0,0,0-.26,0l-.1,0-.09.06a.74.74,0,0,0-.23.2.84.84,0,0,0-.17.4,12.49,12.49,0,0,1-2.67,7,6.89,6.89,0,0,1-1.36,1.23,7.68,7.68,0,0,1-.78.47,4.82,4.82,0,0,1-.78.31,1.77,1.77,0,0,1-1.37-.16A1.9,1.9,0,0,1,77,168a3.52,3.52,0,0,1-.35-.7,15.77,15.77,0,0,1,.52-9.14A16.23,16.23,0,0,1,79.32,154a16.68,16.68,0,0,1,1.5-1.82,20.1,20.1,0,0,1,1.72-1.6A20.56,20.56,0,0,1,91,146.5a10.23,10.23,0,0,1,1.44-.22c.27,0,.55-.05.81-.09a5.48,5.48,0,0,1,2.2.22,3.79,3.79,0,0,1,2.62,3,.25.25,0,0,0-.26,0,.34.34,0,0,0-.08.09.24.24,0,0,0,0,.22.34.34,0,0,0,.63,0v0a3.52,3.52,0,0,0-.52-2.51,5.08,5.08,0,0,0-1.45-1.51l.9,0c10.52,0,23.72,2.3,32.59,20.16-.18,2.18-2.14,21.57-17.33,29.66a24.52,24.52,0,0,1-7.06,2.19Q102,197.08,98.75,196.19Zm-9-71.71a1.15,1.15,0,0,1,.89-.39,2,2,0,0,1,.69.14,10.12,10.12,0,0,0,4.47.68,6.45,6.45,0,0,1-4.28,2,1.85,1.85,0,0,1-2-.79A1.56,1.56,0,0,1,89.7,124.48ZM119.59,199a80,80,0,0,1-9.84-.61A29,29,0,0,0,124,187.22c4.05-5.88,6.58-13.42,7.52-22.4,1.13-10.91-.35-21.15-4.29-29.63a41.74,41.74,0,0,0-7.88-12.13,11.26,11.26,0,0,0,4.38-1.54,26.34,26.34,0,0,1,2.15,1.77,6.37,6.37,0,0,0,2.44,2.55c.49.59,1,1.21,1.44,1.88a48.07,48.07,0,0,1,3.94,6.71,49.62,49.62,0,0,1,3.23,8.09,59.49,59.49,0,0,1,2.34,18.78A62.05,62.05,0,0,1,136,180a40.06,40.06,0,0,1-3.74,7.91,31.88,31.88,0,0,1-4.91,6.11,26.67,26.67,0,0,1-7,4.93Zm5.34-78.32.11-.09,0,.19Zm1.93-2.14a.65.65,0,0,0,0-.27,18.09,18.09,0,0,0,5.23.48,5.6,5.6,0,0,0,2.69,4.51c.13.08.27.13.41.2a4.95,4.95,0,0,1-8.38-4.92Zm.68,75.69a31.27,31.27,0,0,0,5-6.1,39.27,39.27,0,0,0,3.9-7.93A62.46,62.46,0,0,0,140,161.33a60.59,60.59,0,0,0-2.11-19.1,51.81,51.81,0,0,0-3.16-8.3,50.73,50.73,0,0,0-3.93-7l-.28-.38a6.9,6.9,0,0,0,3.28-.35c.43.37.86.78,1.3,1.22l.12.12a6.55,6.55,0,0,0,2.18,2.58,29.4,29.4,0,0,1,2.6,4.2,45.86,45.86,0,0,1,1.94,4.43c.59,1.56,1.11,3.13,1.61,4.76a46.44,46.44,0,0,1,1.69,9.71,53.2,53.2,0,0,1-.13,8.66c-.24,2.52-.59,4.62-.88,6.08s-.49,2.28-.49,2.28.23-.82.58-2.26a60.72,60.72,0,0,0,1.12-6.07,50.33,50.33,0,0,0-.87-18.7c-.41-1.64-.95-3.29-1.51-4.87a47.46,47.46,0,0,0-1.92-4.59c-.46-.94-.95-1.82-1.46-2.67a11.63,11.63,0,0,0,5.78-.46,5.3,5.3,0,0,0,.13,4.52,5.38,5.38,0,0,0,4.7,2.71h0a3.9,3.9,0,0,0,.31,2.54,5.93,5.93,0,0,0,1.73,2.17c.08.28.17.56.25.84.46,1.6.85,3.21,1.22,4.88a45.83,45.83,0,0,1,.9,9.81,51.77,51.77,0,0,1-.83,8.62,56.55,56.55,0,0,1-1.37,6c-.4,1.42-.67,2.23-.67,2.23s.3-.79.76-2.21a60,60,0,0,0,1.61-5.95,50.7,50.7,0,0,0,.65-18.71c-.27-1.56-.64-3.14-1-4.67a4.38,4.38,0,0,0,2.13.25,7.06,7.06,0,0,0,2.85-1.11c0,.14.09.28.13.42.34,1.14.65,2.41.92,3.75s.51,2.78.7,4.26a58.28,58.28,0,0,1,.33,9.41,53.52,53.52,0,0,1-3.43,17.28,37,37,0,0,1-2.58,5.24c-.35.61-.66,1.07-.87,1.39l-.31.49s.11-.17.33-.48.54-.76.91-1.36a38.31,38.31,0,0,0,2.74-5.19,53.86,53.86,0,0,0,4-17.33,60.89,60.89,0,0,0,0-9.56c-.15-1.52-.33-3-.58-4.38s-.51-2.68-.83-3.87c-.09-.33-.17-.66-.26-1a14,14,0,0,0,2.1-2.53c0,.07,0,.14,0,.21,0,.3.09.62.16.92a1.08,1.08,0,0,0,.11.18,12.12,12.12,0,0,0,6.53,7.57,11.31,11.31,0,0,0,3.27.87,61.68,61.68,0,0,1,.88,15.4,44.27,44.27,0,0,1-2.17,11.15,32.87,32.87,0,0,1-3.74,7.68A79,79,0,0,1,120.68,199,27.17,27.17,0,0,0,127.54,194.2Zm40.31-11.63a34.27,34.27,0,0,0,3.49-7,45.49,45.49,0,0,0,2.49-11.26,62.9,62.9,0,0,0-.46-15.38,12.33,12.33,0,0,0,7.14-2.18,12.22,12.22,0,0,0,2,7.16,12,12,0,0,0,6.06,4.86A80,80,0,0,1,167.85,182.57Z"/></g></g></svg>