<svg xmlns="http://www.w3.org/2000/svg" viewBox="0 0 551.33 551.33"><defs><style>.cls-1{fill:#adc0bd;}.cls-2{fill:#fff;}</style></defs><title>pinterestFichier 11</title><g id="Calque_2" data-name="Calque 2"><g id="Calque_3" data-name="Calque 3"><path class="cls-1" d="M275.67,551.33C123.66,551.33,0,427.67,0,275.66S123.66,0,275.67,0,551.33,123.66,551.33,275.66,427.67,551.33,275.67,551.33Z"/><path class="cls-2" d="M296.72,364.11c-19.72-1.53-28-11.3-43.47-20.69-6.89,36.15-15,71.09-34.25,94.92-5.59,6.94-16.89,3.45-17.33-5.45-2.91-57.6,17-103.33,26.76-151.56-18.56-31.24,2.23-94.13,41.38-78.64C318,221.75,228.09,318.87,288.44,331c63,12.67,88.73-109.32,49.66-149-56.46-57.29-164.33-1.3-151.07,80.71,2.51,15.58,15.59,22.73,13.93,38.14a13.71,13.71,0,0,1-19.62,11c-25-11.68-32.74-37.27-31.56-69.83,2.24-62.19,55.88-105.74,109.69-111.76,68-7.62,131.91,25,140.73,89,9.92,72.24-30.72,150.48-103.48,144.86Z"/></g></g></svg>